# xmcd
#
# Track frame offsets: 
#        150
#        17293
#        31794
#        48670
#        63710
#        81445
#        98669
#
# Disc length: 1561 seconds
#
# Revision: 0
# Processed by: cddbd v1.5.2PL0 Copyright (c) Steve Scherf et al.
# Submitted via: ExactAudioCopy v0.95b3
#
DISCID=4f061707
DTITLE=George Harrison  - Cloud 9 Rough Mixes  FLAC
DYEAR=1900
DGENRE=
TTITLE0=Got My Mind Set On You
TTITLE1=Cloud 9
TTITLE2=This Is Love
TTITLE3=Fish On The Sand
TTITLE4=That's What It Takes
TTITLE5=Devil's Radio
TTITLE6=When We Was Fab
EXTD=
EXTT0=
EXTT1=
EXTT2=
EXTT3=
EXTT4=
EXTT5=
EXTT6=
PLAYORDER=
